<?xml version="1.0" encoding="utf-8"?>
<!-- Generator: Adobe Illustrator 27.6.1, SVG Export Plug-In . SVG Version: 6.00 Build 0)  -->
<svg version="1.1" id="Layer_1" xmlns="http://www.w3.org/2000/svg" xmlns:xlink="http://www.w3.org/1999/xlink" x="0px" y="0px"
	 viewBox="0 0 1024 1024" style="enable-background:new 0 0 1024 1024;" xml:space="preserve">
<style type="text/css">
	.st0{fill:#8DF9F6;}
</style>
<g>
	<path class="st0" d="M254.5,43.9c8.6,0,17.3,0.9,25.7,2.8C400,73.2,498.8,116.6,582.3,179.2c22.8,17.1,49.8,23.1,76,28.9
		c15.8,3.5,32.2,7.1,47.2,13.2c24.7,9.9,51.4,12.7,77.3,15.4c35,3.7,68.1,7.1,96.6,26.7c12.1,8.3,25.3,16,38.1,23.4
		c22.4,13,45.6,26.4,63.9,44c20.4,19.6,32.4,42.3,36.7,69.6c9.1,57.2-1.9,103.3-33.5,140.8c-3.5,4.2-5.7,9.1-7.9,13.8
		c-3.1,6.8-6,13.4-12.7,18.4l-6.5-21.4c-0.3-1.1-1.3-1.9-2.4-2.1c-1.1-0.2-2.2-0.2-3.3-0.2c-9.8,0-13.9,6.9-17.1,12.5
		c-0.9,1.5-1.7,2.9-2.6,4.2c-3.6,5-5.8,11.7-7.9,18.2c-4,12.5-7,20.1-14.5,20.1c-1.1,0-2.3-0.2-3.5-0.5c-8.5-2.1-7.9-10.8-6.2-24.8
		c0.9-7.4,1.8-15,0.4-21.5c-0.6-3-0.7-6.5-0.8-10.2c-0.3-9.5-0.6-21.4-12.9-23.7c-0.9-0.2-1.8-0.3-2.7-0.3c-10.3,0-16.3,11-21,19.9
		c-1.3,2.4-2.5,4.6-3.7,6.5c-3.6,5.6-6,12.9-8.3,20c-4.9,15-8.8,24.8-17.6,24.8c-0.6,0-1.3-0.1-2-0.2c-10.6-1.6-10.4-10-9.1-24.9
		c0.8-8.8,1.6-17.9-1.6-25.3c-0.7-1.6-1.3-3.9-2-6.2c-1.9-6.8-4.1-14.5-10.1-14.5c-1.9,0-3.8,0.8-5.8,2.6c-1.4,1.2-3,1.8-5.2,1.8
		c-2.9,0-6.4-1.1-9.7-2.1c-3.5-1.1-7.1-2.2-10.4-2.2c-11.2,0-12.4,12.7-12.8,16.8c-0.4,3.7-2.2,7.7-4,11.5c-0.5,1.1-1,2.2-1.5,3.3
		c-4,9.1-10.1,22.8-18.4,22.8c-0.8,0-1.6-0.1-2.4-0.3c-3-0.8-5-2-5.7-3.5c-1.3-2.6,0.4-7.1,2-11.5c1.7-4.6,3.5-9.3,2.9-13.9
		c-0.3-2.2-0.6-4.4-0.9-6.7c-0.1-1-0.3-2.1-0.4-3.1c-0.2-1.5-1.5-2.6-3-2.6c0,0-0.1,0-0.1,0c-9.6,0.3-14.9,6.3-20,12.1
		c-2.6,3-5.3,6-8.6,8.4c0.7-9.3-1.9-20.3-23.2-36.2c-4.6-3.4-9.4-7-13.1-11c-0.6-0.6-1.4-1-2.2-1c-0.5,0-0.9,0.1-1.4,0.3
		c-5.4,2.8-9,7.4-12.4,11.8c-3.7,4.8-7.3,9.4-13,11.6c-2.9-4.7-2.6-10.8-2.3-17.1c0.4-8.5,1-18.2-7.7-24.3c-4-2.8-7.7-4.1-11.5-4.1
		c-7.1,0-12.7,4.9-18.1,9.7c-3.7,3.2-7.4,6.5-11.7,8.4c0.2-2.1,0.5-4.3,0.9-6.6c1.2-8.3,2.5-16.8-2.1-22.1
		c-2.5-2.9-6.4-4.3-11.5-4.3c-4,0-8.7,0.8-14.6,2.5c-2.3-0.4-10.1-6.8-15.7-11.5c-7.1-5.9-15.2-12.6-22.2-16.6
		c-20-11.4-41.5-21.9-63.5-21.9c-21.5,0-41.2,10-60.5,30.7c-18.1,19.5-39.4,36.3-57.8,50.2c-8.8,6.7-12.9,12.9-12.4,19
		c0.4,5.3,4.4,10,11.7,13.9c26.5,14.1,51.3,33.4,76,59.2c22.1,23.1,42.2,49.2,61.6,74.5c4.3,5.6,8.8,11.4,13.2,17.1
		c10.2,13.1,24,23.4,37.5,33.4c8.1,6,16.5,12.3,24,19.1c3.7,3.4,7,5,10.1,5c2.7,0,5.2-1.2,7.6-3.6c12.1-12.3,18.2-14.9,21.3-14.9
		c4.8,0,6.5,8,8.2,19.2c0.9,5.7,1.8,11.6,3.7,16c0.9,2,0.8,4.7,0.8,7.5c0,1.4,0,2.9,0.1,4.4c0.1,1.4,1.1,2.5,2.5,2.7
		c1.5,0.3,3,0.4,4.4,0.4c9.4,0,15-5.9,19.9-11c2.8-2.9,5.4-5.7,8.5-7.2c4.1,7.8,2.4,15.9,0.5,24.5c-1.5,6.9-3,14.1-1.6,21.5
		c0.3,1.4,1.5,2.4,2.9,2.4c0.2,0,0.3,0,0.5,0c12-2,17.7-10.2,22.8-17.4c2-2.8,3.8-5.5,6-7.8c4.1-4.4,6.2-5,7.1-5
		c1.4,0,3,2.5,4.2,6.6c3.3,11.2,6.4,15.8,10.6,15.8c4,0,6.5-4.2,9.1-8.6c0.7-1.3,2.1-3.6,3.3-5.1l0.5,7l1.6,21.1
		c0.1,0.9,0.6,1.8,1.3,2.3c2,1.4,4.1,2,6.1,2c3.8,0,6.7-2.4,8.9-4.4c0.8-0.7,1.7-1.4,2.4-1.9c3.4-2.2,5.8-5.7,8.3-9.2
		c3-4.2,5.8-8.3,9.2-8.3c1.3,0,2.8,0.5,4.4,1.5c7.9,4.7,6.3,12.9,3.1,24.8c-0.5,2-1.1,4.1-1.6,6c-0.4,1.7-0.3,3.4-0.2,5.5
		c0,1.1,0.1,2.3,0.1,3.7c0,1.1,0.6,2.2,1.6,2.7c0.4,0.2,0.9,0.3,1.4,0.3c0.6,0,1.3-0.2,1.8-0.6c6.9-5.1,11.1-11.6,14.8-17.4
		c4.2-6.5,7.8-12.2,14.3-14.9c3.4,6.5,3.3,13.5,3.2,20.9c-0.1,6.9-0.1,14.1,2.9,20.7c0.5,1.1,1.6,1.7,2.7,1.7c0,0,0.1,0,0.1,0
		c10.3-0.5,13.2-8.7,15.6-15.4c2.5-7.1,4.2-10.2,8.9-10.2c1.3,0,2.8,0.2,4.5,0.7c20.1,5.6,22.4,22.4,24.7,40.2l0.3,2
		c3.9,28.7-4.3,56.3-23.1,77.7c-19,21.8-46.9,34.3-76.4,34.3c-4,0-8.1-0.2-12.2-0.7c-68.3-7.7-131.2-35.6-192-62.7
		c-10.1-4.5-20.5-9.1-30.8-13.6c-96.8-42.1-187.5-70-277.4-85.5c-30.9-5.3-54.7-16.9-72.8-35.3c-17.3-17.6-28.9-41.1-35.4-71.8
		c-5.2-24.2-13-52-32.1-74.6c-12.4-14.6-21-32.4-29.4-49.6c-13.3-27.4-27.1-55.7-56.3-73.2c-5.7-3.4-6.7-10.4-3.1-21.3
		c0.6-1.8,1.2-3.7,1.8-5.7c3.4-10.7,7.2-22.8,14.5-28.6c43-34.4,45.5-82.2,48-128.4c0.2-3.6,0.4-7.2,0.6-10.7
		c0.4-6.7,1.1-13.5,4-17.9c1.7-2.6,5.1-6.1,14.6-6.1h0.1c10.8,0,17.5-5.7,24.6-11.8l0.4-0.4c21.6-18.4,48.2-27.3,81.5-27.3
		c7.5,0,15.3,0.4,23.7,1.3c6.9,0.7,23.4,4.2,27.4,21.1c2.9,12.1-4.7,19.4-15,27.8c-2.5,2.1-5.2,4.1-7.7,6.1
		c-11.6,9-23.5,18.3-31,32.2c-6.2,11.5-7.1,22.5-2.6,31.1c4.6,8.6,14.3,14.1,27.5,15.4c6.5,0.6,12.2,0.9,17.5,0.9
		c37.8,0,55-16.1,63.4-59.4c8.9-45.6-3.4-89.2-15.3-131.4c-1.4-4.9-2.8-9.9-4.2-14.9c-3.5-12.7-11-14.6-15.2-14.6
		c-5.9,0-12.3,3.7-18,10.3c-12.3,14.2-28.7,21.4-48.8,21.4c-2,0-4-0.1-6-0.2c-2.1-0.1-4.3-0.2-6.3-0.2c-27.9,0-49.6,12.6-66.3,38.6
		c-10.9,17-26.4,25.3-47.4,25.3c-3.5,0-7.3-0.2-11.1-0.7c-18.5-2.4-21.2-17-24.1-32.4c-0.6-3.2-1.2-6.6-2-9.7
		c-4.8-19.3-0.7-37.9,3.6-57.5c3.1-14.3,6.4-29.2,5.9-44.3c-0.2-6,5.6-13.1,15.2-14.1c48.2-5.1,91.4-26.8,129.6-45.9
		C210.7,49.7,233.1,43.9,254.5,43.9C254.5,43.9,254.5,43.9,254.5,43.9 M395.3,342.7c6.8,0,11.4-4.4,13.6-13.1
		c7.5-29.6,15-58.7,22.2-86.8c2.4-9.4,4.7-18.5,7-27.3c0.1-0.3,0.1-0.7,0.1-1c-0.3-3.6-0.6-6.5-0.8-9c-0.4-4.3-0.6-7.1-0.9-9.9
		c-1.6-15.9-3.7-37.7-28.8-44.1c-6-1.5-11.6-2.3-16.7-2.3c-11.9,0-20.7,4.2-26.1,12.4c-11.6,17.5-0.4,33.9,9.5,48.4l0.5,0.8
		c14.4,21.2,18.2,46,12.1,78.1c-2.3,12.3-3.3,24.9-3.9,36.7c0,0.4,0,0.8-0.1,1.2c-0.3,4.7-0.9,13.5,8.5,15.6
		C392.8,342.5,394.1,342.7,395.3,342.7 M491.5,342.8c1.6,0,3.2-0.2,4.8-0.7c15.8-4.7,31.4-7.1,46.3-7.1c33.2,0,65.5,11.6,98.6,35.5
		c10,7.3,18.7,10.9,25.9,10.9c4.9,0,9.1-1.7,12.4-5.1c5.8-6,8.5-17.2,7.9-33.1c0,0,0-0.1,0-0.1c-1.2-17.2-9-31.7-16-44.5
		c-22.1-40.8-60.2-56.1-97-70.9c-20-8.1-40.6-16.4-58.2-28.7c-3.7-2.6-8.8-4.2-13.2-4.2c-7.6,0-12.3,4.7-12.8,12.6
		c-0.9,16.2-6.9,31.2-12.6,45.7c-4.3,10.9-8.8,22.2-11.2,34c-3.5,17,0.4,36,9.5,47.1C480.4,339.8,485.8,342.8,491.5,342.8
		 M987.2,399.9c3.7,0,7.1-1.7,10.2-5.1c8.4-9.2,0.1-21-2.6-24.9c-14.3-20.3-29-35.7-45.2-47.2c-18.9-13.4-39.9-21.8-64.2-25.7
		c-0.2,0-0.3,0-0.5,0c-1,0-2,0.5-2.5,1.4c-0.6,1-0.6,2.3,0.1,3.3c27.6,40.2,59.9,67.7,87.8,89.2c0.7,0.5,1.3,1.1,2,1.6
		C976.7,395.9,981.6,399.9,987.2,399.9 M740,383c13.5,0,27.5-5.4,38.3-14.9c10.8-9.5,17-21.5,17-33.2c0.1-19.6-11.4-30.3-33.1-31
		c-0.2,0-0.3,0-0.5,0c-18.5,0-45.4,32.2-46.5,55.6c-1,21.9,17.7,23,23.9,23.4c0,0,0.1,0,0.1,0C739.5,383,739.7,383,740,383
		 M182.4,437.9c-0.6,0-1.3,0-1.9,0c-0.7,0-1.3,0-2,0c-9.7,0-19.8,0.9-27.4,12.1c-0.5,0.8-0.7,1.8-0.3,2.7c0.3,0.9,1.1,1.6,2,1.9
		c12.4,3.7,25.2,6.3,37.6,8.9c30.6,6.4,59.5,12.4,83.9,32.2c8.4,6.8,16,10.1,23.3,10.1c9.4,0,17.9-5.5,25.9-16.9
		c3.7-5.3,8-10.4,12.1-15.3c4.4-5.2,8.9-10.6,12.9-16.3c3.2-4.6,7.1-11.3,4.3-16.5c-2-3.9-7-5.7-15.2-5.7c-0.6,0-1.1,0-1.7,0
		c-27.7,0.8-55.8,1.2-83,1.6c-22.3,0.3-45.3,0.7-67.9,1.2C184,437.9,183.2,437.9,182.4,437.9 M254.5,40.9
		c-22.6,0-45.4,6.2-67.8,17.4C146.1,78.6,104.5,99,58.1,103.9c-11,1.2-18.2,9.4-17.9,17.2c1.2,34.7-17.9,67.6-9.4,102.4
		c4.3,17.5,3.5,41.1,28.6,44.3c3.9,0.5,7.7,0.8,11.5,0.8c19.9,0,37.5-7.4,49.9-26.7c15.2-23.6,35.5-37.3,63.7-37.3
		c2,0,4.1,0.1,6.1,0.2c2.1,0.1,4.2,0.2,6.2,0.2c19.5,0,37.2-6.4,51-22.5c5.1-5.9,10.7-9.2,15.8-9.2c5.3,0,9.9,3.8,12.3,12.4
		c13,47.3,29.2,94.8,19.4,145c-8.1,41.7-23.9,57-60.5,57c-5.3,0-11-0.3-17.2-0.9c-24.9-2.4-34.5-20.1-22.5-42
		c8.8-16.3,24.2-26.1,38-37.4c10-8.2,19.4-16.7,16-30.8c-3.6-15.1-16.8-22-30-23.4c-8.1-0.8-16.1-1.3-24.1-1.3
		c-30.1,0-58.7,7-83.4,28c-7.1,6.1-13.2,11.4-23,11.4c0,0,0,0,0,0c0,0,0,0-0.1,0c-17.9,0-20.7,11-21.6,26.8
		C64,368,64.7,419,19.5,455.1c-9.4,7.5-13.1,23.1-17.2,35.7c-2.7,8.1-4.7,19.4,4.4,24.8c46.8,28,52.7,84.2,84.9,122.2
		c17.7,20.8,25.8,46.5,31.5,73.3c12.9,60.4,46.8,98.4,110.7,109.4c95.7,16.5,187.2,46.5,276.7,85.3c72.2,31.4,143.5,67.5,223.7,76.5
		c4.2,0.5,8.4,0.7,12.5,0.7c62.1,0,111-52.7,102.5-115.4c-2.5-18.4-4.3-38.3-27.2-44.7c-2-0.6-3.8-0.8-5.3-0.8
		c-15,0-8.4,24.9-24.7,25.6c-6.1-13.2,1.7-29.9-7.5-44c-16,4.7-17.5,22.7-32.3,33.6c0-4.2-0.4-6.4,0.1-8.5
		c2.7-11.9,9.6-26.7-2.9-34.1c-2.2-1.3-4.2-1.9-5.9-1.9c-8.5,0-12,13.3-19.1,17.9c-3,2-5.8,5.8-9.7,5.8c-1.3,0-2.8-0.4-4.5-1.5
		c-0.8-10.9-1.7-21.8-2.4-32c-0.4-0.1-0.7-0.2-1.1-0.2c-5.5,0-9.3,15-14.1,15c-2.3,0-4.8-3.5-7.7-13.7c-1.8-6.3-4.3-8.7-7.1-8.7
		c-2.8,0-6,2.5-9.3,6c-8.1,8.6-12,21.8-27.1,24.3c-3.3-16.6,10.1-33-0.6-49.1c-11.2,3.4-15.5,19-29.7,19c-1.2,0-2.5-0.1-3.8-0.4
		c-0.3-4.3,0.5-9.1-1.1-12.9c-5.1-11.7-2.9-37-14.7-37c-4.9,0-12.2,4.3-23.4,15.8c-1.7,1.8-3.5,2.7-5.4,2.7c-2.4,0-5-1.4-8.1-4.2
		c-19.8-18-45-31.4-61.1-52.1C449,630.3,407.8,571,341.6,535.9c-14.8-7.8-12.7-17.5,1.1-27.9c20.5-15.5,40.7-31.8,58.2-50.5
		c20.2-21.6,39.3-29.7,58.3-29.7c20.6,0,40.9,9.5,62,21.5c14.4,8.2,33.8,28.5,39.5,28.5c0.2,0,0.4,0,0.5-0.1
		c5.8-1.7,10.4-2.4,14-2.4c18.9,0,9.2,21.2,9.6,34.1c13.6-2.6,21.2-19.1,33-19.1c2.9,0,6.1,1,9.8,3.6c13.8,9.7,0.1,30,10.6,42.5
		c14-3.9,16.9-18.7,27.9-24.3c14,15.4,39.5,21.6,34.7,50.8c14.8-6.5,17.6-22.7,32.5-23.2c0.4,3.4,0.8,6.6,1.3,9.9
		c1.6,10.8-14.9,26.4,3,31.3c1.1,0.3,2.1,0.4,3.2,0.4c10.2,0,16.5-14.2,21.1-24.6c2.3-5.1,5.3-10.4,5.8-15.8
		c1.1-11.1,4.9-14.1,9.9-14.1c5.9,0,13.5,4.3,20.1,4.3c2.6,0,5-0.7,7.2-2.5c1.5-1.3,2.7-1.8,3.8-1.8c5.2,0,6.7,12.6,9.3,18.9
		c7.4,17.5-9.6,48.7,13,52c0.9,0.1,1.7,0.2,2.5,0.2c17.7,0,18.6-30.7,28.5-46.2c5.7-9,11.2-25,22.1-25c0.7,0,1.4,0.1,2.2,0.2
		c13.8,2.5,8.9,20,11.4,31.5c3.6,16.8-9.9,44.2,8,48.6c1.5,0.4,2.9,0.6,4.2,0.6c16,0,15.6-26.9,24.8-39.5c4.4-6,6.9-15.4,17.3-15.4
		c0.9,0,1.9,0.1,2.9,0.2c2.5,8.3,5,16.6,7.6,25.2c15.7-9.1,15.8-24.6,24.5-35c35.1-41.7,42.4-91,34.2-143.2
		c-12.7-79.9-85.6-101.6-139.9-138.9c-51.1-35.1-118-19.7-174.5-42.5c-40-16.1-86.5-14.7-122.5-41.7
		C493.2,108.7,390.3,68,280.8,43.8C272.1,41.9,263.3,40.9,254.5,40.9L254.5,40.9z M395.3,339.7c-1,0-2-0.1-3.2-0.4
		c-7.4-1.6-6.3-8.6-6-13.6c0.7-12.2,1.6-24.4,3.9-36.3c5.4-28.4,4.1-55.7-12.6-80.3c-9.7-14.2-20.6-29.8-10-45.8
		c5.4-8.1,14.1-11,23.6-11c5.2,0,10.7,0.9,16,2.2c21.9,5.6,24.7,23.2,26.5,41.5c0.4,4.4,0.8,8.9,1.6,18.8
		c-8.9,34.7-19.1,74.4-29.1,114.1C404.3,335.2,401.2,339.7,395.3,339.7L395.3,339.7z M491.5,339.8c-15.3,0-27.3-26.8-22.2-52
		c5.5-27.3,22.2-51.2,23.9-80.2c0.4-7.3,4.8-9.7,9.8-9.7c4.1,0,8.6,1.7,11.4,3.7c49.9,35,120.7,36.7,154.3,98.6
		c7.7,14.2,14.5,27.3,15.6,43.3c0.8,22.7-5.1,35.1-17.3,35.1c-6.3,0-14.4-3.4-24.1-10.4c-32.2-23.2-64.8-36.1-100.3-36.1
		c-15.1,0-30.8,2.3-47.2,7.2C494.1,339.6,492.8,339.8,491.5,339.8L491.5,339.8z M987.2,396.9c-5.4,0-10.6-4.9-15.1-8.4
		c-31.6-24.3-61.2-50.7-87.2-88.5c50.2,7.9,81.8,35.3,107.4,71.7c4.8,6.8,8.7,14.8,2.9,21.2C992.5,395.7,989.8,396.9,987.2,396.9
		L987.2,396.9z M740,380c-0.2,0-0.5,0-0.7,0c-9.9-0.6-21.8-3.3-21.1-20.3c1-21.5,26.6-52.8,43.5-52.8c0.1,0,0.3,0,0.4,0
		c17.4,0.5,30.3,7.8,30.2,27.9C792.2,357.2,767.2,380,740,380L740,380z M182.4,440.9c0.8,0,1.7,0,2.5,0c50.3-1.2,100.7-1.4,151-2.9
		c0.6,0,1.1,0,1.7,0c15,0,16.1,6.4,8.4,17.6c-7.6,11-17.2,20.6-24.9,31.6c-7.3,10.4-15,15.7-23.4,15.7c-6.6,0-13.6-3.1-21.4-9.5
		c-35.3-28.7-80.7-29.3-122.5-41.7c6.8-10.1,16-10.8,24.9-10.8C179.8,440.9,181.1,440.9,182.4,440.9L182.4,440.9z"/>
</g>
</svg>
