<!--?xml version="1.0" encoding="utf-8"?-->
<!-- Generator: Adobe Illustrator 27.6.1, SVG Export Plug-In . SVG Version: 6.00 Build 0)  -->
<svg version="1.1" id="Layer_1" xmlns="http://www.w3.org/2000/svg" xmlns:xlink="http://www.w3.org/1999/xlink" x="0px" y="0px" viewBox="0 0 1024 1024" style="" xml:space="preserve">
<style type="text/css">
	.st0{fill:none;stroke:#8DF9F6;stroke-width:2;stroke-miterlimit:10;}
</style>
<g>
	<path class="st0 HYbiEpiN_0" d="M6.7,515.6c46.8,28,52.7,84.2,84.9,122.2c17.7,20.8,25.8,46.5,31.5,73.3c12.9,60.4,46.8,98.4,110.7,109.4
		c95.7,16.5,187.2,46.5,276.7,85.3c72.2,31.4,143.5,67.5,223.7,76.5c67.8,7.6,124-47.8,115-114.7c-2.5-18.4-4.3-38.3-27.2-44.7
		c-21.9-6.1-12,24-29.9,24.8c-6.1-13.2,1.7-29.9-7.5-44c-16,4.7-17.5,22.7-32.3,33.6c0-4.2-0.4-6.4,0.1-8.5
		c2.7-11.9,9.6-26.7-2.9-34.1c-13.1-7.8-16.5,10.5-25,16c-4.1,2.6-7.6,8.6-14.2,4.3c-0.8-10.9-1.7-21.8-2.4-32
		c-8.8-3.2-13.3,34-22.9,1.1c-3.7-12.7-9.8-9.7-16.3-2.8c-8.1,8.6-12,21.8-27.1,24.3c-3.3-16.6,10.1-33-0.6-49.1
		c-12.1,3.7-16.2,21.8-33.5,18.7c-0.3-4.3,0.5-9.1-1.1-12.9c-7.2-16.5,0.2-60.4-38.2-21.2c-3.9,4-7.9,3.6-13.5-1.5
		c-19.8-18-45-31.4-61.1-52.1C449,630.3,407.8,571,341.6,535.9c-14.8-7.8-12.7-17.5,1.1-27.9c20.5-15.5,40.7-31.8,58.2-50.5
		c42.1-45.2,79.8-31.2,120.3-8.2c14.8,8.4,35.1,29.9,40,28.5c36.8-10.7,23.1,16.3,23.6,31.7c17-3.2,24.6-28.3,42.7-15.5
		c13.8,9.7,0.1,30,10.6,42.5c14-3.9,16.9-18.7,27.9-24.3c14,15.4,39.5,21.6,34.7,50.8c14.8-6.5,17.6-22.7,32.5-23.2
		c0.4,3.4,0.8,6.6,1.3,9.9c1.6,10.8-14.9,26.4,3,31.3c12.1,3.3,19.2-12.7,24.3-24.1c2.3-5.1,5.3-10.4,5.8-15.8
		c2.9-29.6,25.1-1.8,37.1-12.4c8.4-7.4,9.9,9.5,13.1,17.1c7.4,17.5-9.6,48.7,13,52c20.1,2.9,20.6-29.8,30.9-46
		c6.1-9.6,11.9-27.1,24.3-24.8c13.8,2.5,8.9,20,11.4,31.5c3.6,16.8-9.9,44.2,8,48.6c20.3,5,19.1-25.3,29.1-39
		c4.8-6.5,7.3-17.1,20.2-15.2c2.5,8.3,5,16.6,7.6,25.2c15.7-9.1,15.8-24.6,24.5-35c35.1-41.7,42.4-91,34.2-143.2
		c-12.7-79.9-85.6-101.6-139.9-138.9c-51.1-35.1-118-19.7-174.5-42.5c-40-16.1-86.5-14.7-122.5-41.7
		C493.2,108.7,390.3,68,280.8,43.8c-31.3-6.9-63-1-94.2,14.6C146.1,78.6,104.5,99,58.1,103.9c-11,1.2-18.2,9.4-17.9,17.2
		c1.2,34.7-17.9,67.6-9.4,102.4c4.3,17.5,3.6,41.1,28.6,44.3c24.5,3.1,46.7-3,61.4-25.9c16.3-25.3,38.4-39.1,69.9-37
		c21.9,1.5,42-4.5,57.3-22.2c10.4-12.1,23.4-13.6,28,3.2c13,47.3,29.2,94.8,19.4,145c-9.3,47.8-28.6,60.8-77.7,56.1
		c-24.9-2.4-34.5-20.1-22.5-42c8.8-16.3,24.2-26.1,38-37.4c10-8.2,19.4-16.7,16-30.8c-3.6-15.1-16.8-22-30-23.4
		c-38.7-4.1-76.3,0.1-107.5,26.7c-7.1,6.1-13.2,11.4-23.1,11.4c-17.9,0-20.8,11-21.7,26.8C64,368,64.7,419,19.5,455.1
		c-9.4,7.5-13.1,23.1-17.2,35.7C-0.4,498.9-2.4,510.2,6.7,515.6z M992.3,371.6c4.8,6.8,8.7,14.8,2.9,21.2
		c-8.3,9.1-16.4,0.9-23.1-4.3c-31.6-24.3-61.2-50.7-87.2-88.5C935.2,307.9,966.7,335.2,992.3,371.6z M762.1,307
		c17.4,0.5,30.3,7.8,30.2,27.9c-0.1,22.5-25.6,45.5-53.1,45.1c-9.9-0.6-21.8-3.3-21.1-20.3C719.2,338.1,745.2,306.5,762.1,307z
		 M469.3,287.7c5.5-27.3,22.2-51.2,23.9-80.2c0.8-13.4,15.1-10.4,21.2-6.1c49.9,35,120.7,36.7,154.3,98.6
		c7.7,14.2,14.5,27.3,15.6,43.3c1.2,34.5-13.1,45.2-41.4,24.7c-45.8-33.1-92.6-45.2-147.5-28.9C478.3,344.3,463.8,315.1,469.3,287.7
		z M367.4,163.1c8.3-12.6,24.7-12.6,39.6-8.8c21.9,5.6,24.7,23.2,26.5,41.5c0.4,4.4,0.8,8.9,1.6,18.8
		c-8.9,34.7-19.1,74.4-29.1,114.1c-1.9,7.4-5.7,12.3-13.9,10.5c-7.4-1.6-6.3-8.6-6-13.6c0.7-12.2,1.6-24.4,3.9-36.3
		c5.4-28.4,4.1-55.7-12.6-80.3C367.7,194.7,356.7,179.2,367.4,163.1z M184.9,440.9c50.3-1.2,100.7-1.4,151-2.9
		c16.6-0.5,18,6,10,17.6c-7.6,11-17.2,20.6-24.9,31.6c-13,18.5-27,20.7-44.8,6.2c-35.3-28.7-80.7-29.3-122.5-41.7
		C162.1,439,174.2,441.1,184.9,440.9z"></path>
</g>
<style data-made-with="vivus-instant" wfd-invisible="true">.HYbiEpiN_0{stroke-dasharray:7768 7770;stroke-dashoffset:7769;animation:HYbiEpiN_draw_0 6400ms ease-in-out 0ms infinite,HYbiEpiN_fade 6400ms linear 0ms infinite;}@keyframes HYbiEpiN_draw{100%{stroke-dashoffset:0;}}@keyframes HYbiEpiN_fade{0%{stroke-opacity:1;}93.75%{stroke-opacity:1;}100%{stroke-opacity:0;}}@keyframes HYbiEpiN_draw_0{0%{stroke-dashoffset: 7769}31.25%{ stroke-dashoffset: 0;}100%{ stroke-dashoffset: 0;}}</style></svg>
